<svg height="512pt" viewBox="0 0 512 512" width="512pt" xmlns="http://www.w3.org/2000/svg"><path d="m373.878906 145.550781c-20.28125 0-36.726562 16.441407-36.726562 36.722657v6.679687c0 4.367187.769531 8.554687 2.167968 12.441406 4.976563 2.519531 10.597657 3.945313 16.558594 3.945313 20.277344 0 36.71875-16.441406 36.71875-36.722656v-6.675782c0-4.367187-.765625-8.558594-2.164062-12.441406-4.976563-2.519531-10.597656-3.949219-16.554688-3.949219zm0 0" fill="#ffd5ab"/><path d="m404.898438 209.339844h-55.085938v2.007812c-21.210938 6.125-36.722656 25.671875-36.722656 48.851563v89.082031h122.910156v-93.082031c0-21.078125-12.832031-39.148438-31.101562-46.859375zm0 0" fill="#62cd4d"/><path d="m176.457031 147.882812c-20.28125 0-36.722656 16.441407-36.722656 36.726563v6.675781c0 3.824219.585937 7.511719 1.667969 10.976563 4.507812 1.976562 9.484375 3.078125 14.71875 3.078125 20.28125 0 36.722656-16.441406 36.722656-36.722656v-6.675782c0-3.824218-.585938-7.511718-1.667969-10.980468-4.507812-1.972657-9.484375-3.078126-14.71875-3.078126zm0 0" fill="#ffd5ab"/><path d="m275 183.382812c-20.28125 0-36.722656 16.441407-36.722656 36.726563v6.675781c0 4.4375.785156 8.6875 2.226562 12.628906 4.710938 2.195313 9.957032 3.425782 15.496094 3.425782 20.28125 0 36.722656-16.441406 36.722656-36.722656v-6.675782c0-4.4375-.789062-8.691406-2.230468-12.628906-4.707032-2.195312-9.953126-3.429688-15.492188-3.429688zm0 0" fill="#ffd5ab"/><g fill="#62cd4d"><path d="m299.398438 244.847656v-.507812h-50.796876v2.007812c-21.207031 6.125-36.722656 25.671875-36.722656 48.851563v91.582031h.710938v-46.710938l.011718-.019531v46.730469h123.519532v-93.082031c0-23.179688-15.515625-42.726563-36.722656-48.851563zm0 0"/><path d="m175.878906 291.699219c0-23.179688 15.511719-42.726563 36.722656-48.851563v-2.007812h21.269532c-5.109375-16.132813-18.042969-28.78125-34.351563-33.492188v-.507812h-51.296875v2.007812c-21.207031 6.125-36.722656 25.671875-36.722656 48.851563v91.582031h64.378906zm0 0"/><path d="m212.589844 349.28125h.011718v-11.230469l-.011718.019531zm0 0"/></g><path d="m446 349.28125v-93.082031c0-30.640625-22.765625-56.050781-52.269531-60.242188 5.570312-7.691406 8.871093-17.136719 8.871093-27.339843v-6.675782c0-25.765625-20.960937-46.722656-46.722656-46.722656-25.765625 0-46.726562 20.957031-46.726562 46.722656v6.675782c0 10.203124 3.296875 19.640624 8.867187 27.335937-5.332031.75-10.46875 2.179687-15.296875 4.234375v-.746094c0-25.765625-20.960937-46.722656-46.722656-46.722656-25.765625 0-46.726562 20.957031-46.726562 46.722656v.746094c-4.828126-2.054688-9.964844-3.484375-15.296876-4.234375 5.570313-7.695313 8.867188-17.132813 8.867188-27.335937v-6.675782c0-25.765625-20.960938-46.722656-46.722656-46.722656-25.765625 0-46.722656 20.957031-46.722656 46.722656v6.675782c0 10.203124 3.296874 19.648437 8.867187 27.339843-29.5 4.191407-52.265625 29.601563-52.265625 60.242188v93.082031c0 5.519531 4.476562 10 10 10h89.878906v27.5c0 5.519531 4.476563 10 10 10h160.242188c5.523437 0 10-4.480469 10-10v-27.5h89.878906c5.523438 0 10-4.476562 10-10zm-116.84375-187.339844c0-14.734375 11.988281-26.722656 26.722656-26.722656s26.722656 11.984375 26.722656 26.722656v6.675782c0 14.734374-11.988281 26.722656-26.722656 26.722656s-26.722656-11.984375-26.722656-26.722656zm-99.878906 37.5c0-14.734375 11.988281-26.722656 26.722656-26.722656s26.722656 11.984375 26.722656 26.722656v6.675782c0 3.527343-.691406 6.894531-1.941406 9.980468-2.683594 3.074219-5.070312 6.429688-7.113281 10.046875-4.714844 4.160157-10.898438 6.695313-17.667969 6.695313-6.765625 0-12.949219-2.535156-17.664062-6.695313-2.042969-3.617187-4.433594-6.976562-7.117188-10.050781-1.246094-3.085938-1.941406-6.449219-1.941406-9.976562zm-99.878906-37.5c0-14.734375 11.988281-26.722656 26.722656-26.722656s26.722656 11.984375 26.722656 26.722656v6.675782c0 14.734374-11.988281 26.722656-26.722656 26.722656s-26.722656-11.984375-26.722656-26.722656zm36.480468 131.757813v45.582031h-43.085937v-27.949219c0-5.523437-4.476563-10-10-10-5.523438 0-10 4.476563-10 10v27.949219h-16.792969v-83.082031c0-22.53125 18.328125-40.859375 40.859375-40.859375h58.523437c11.21875 0 21.5625 4.507812 29.050782 12.074218 1.085937 2.113282 2.328125 4.132813 3.710937 6.042969-29.5 4.191407-52.265625 29.601563-52.265625 60.242188zm160.242188 83.082031h-16.792969v-68.28125c0-5.523438-4.476563-10-10-10s-10 4.476562-10 10v68.28125h-66.738281v-68.28125c0-5.523438-4.476563-10-10-10-5.523438 0-10 4.476562-10 10v68.28125h-16.710938v-83.082031c0-22.53125 18.328125-40.859375 40.855469-40.859375h58.527344c22.53125 0 40.859375 18.328125 40.859375 40.859375zm99.878906-37.5h-16.792969v-68.28125c0-5.523438-4.476562-10-10-10-5.523437 0-10 4.476562-10 10v68.28125h-43.085937v-45.582031c0-30.640625-22.765625-56.050781-52.269532-60.242188 1.386719-1.910156 2.625-3.929687 3.714844-6.042969 7.488282-7.566406 17.832032-12.074218 29.046875-12.074218h58.527344c22.527344 0 40.855469 18.328125 40.855469 40.859375v83.082031zm0 0"/><path d="m112.789062 261c-2.628906 0-5.210937 1.070312-7.070312 2.929688-1.859375 1.859374-2.929688 4.441406-2.929688 7.070312s1.070313 5.210938 2.929688 7.070312c1.871094 1.859376 4.441406 2.929688 7.070312 2.929688 2.628907 0 5.210938-1.070312 7.070313-2.929688 1.859375-1.859374 2.929687-4.441406 2.929687-7.070312s-1.070312-5.210938-2.929687-7.070312c-1.859375-1.859376-4.429687-2.929688-7.070313-2.929688zm0 0"/><path d="m410 112h67.664062c5.523438 0 10-4.476562 10-10s-4.476562-10-10-10h-43.523437l74.929687-74.929688c3.90625-3.90625 3.90625-10.234374 0-14.140624-3.90625-3.90625-10.238281-3.90625-14.140624 0l-74.929688 74.925781v-43.523438c0-5.523437-4.476562-10-10-10s-10 4.476563-10 10v67.667969c0 5.523438 4.476562 10 10 10zm0 0"/><path d="m77.859375 92h-43.527344c-5.519531 0-10 4.476562-10 10s4.480469 10 10 10h67.667969c5.523438 0 10-4.476562 10-10v-67.667969c0-5.523437-4.476562-10-10-10s-10 4.476563-10 10v43.523438l-74.929688-74.925781c-3.902343-3.90625-10.234374-3.90625-14.140624 0-3.90625 3.90625-3.90625 10.234374 0 14.140624zm0 0"/><path d="m443.828125 433.828125c-2.628906 0-5.210937 1.070313-7.070313 2.929687-1.859374 1.863282-2.929687 4.441407-2.929687 7.070313 0 2.632813 1.070313 5.210937 2.929687 7.070313 1.871094 1.871093 4.441407 2.929687 7.070313 2.929687 2.640625 0 5.210937-1.058594 7.070313-2.929687 1.871093-1.859376 2.929687-4.4375 2.929687-7.070313 0-2.628906-1.058594-5.207031-2.929687-7.070313-1.859376-1.859374-4.429688-2.929687-7.070313-2.929687zm0 0"/><path d="m487.664062 410c0-5.523438-4.476562-10-10-10h-67.664062c-5.523438 0-10 4.476562-10 10v67.667969c0 5.519531 4.476562 10 10 10s10-4.480469 10-10v-57.667969h57.664062c5.523438 0 10-4.476562 10-10zm0 0"/><path d="m102 400h-67.667969c-5.519531 0-10 4.476562-10 10s4.480469 10 10 10h43.527344l-74.929687 74.929688c-3.90625 3.902343-3.90625 10.234374 0 14.140624 1.953124 1.953126 4.511718 2.929688 7.070312 2.929688s5.117188-.976562 7.070312-2.929688l74.929688-74.929687v43.527344c0 5.519531 4.476562 10 10 10s10-4.480469 10-10v-67.667969c0-5.523438-4.476562-10-10-10zm0 0"/><path d="m479.1875 465.046875c-3.90625-3.90625-10.238281-3.90625-14.140625 0-3.90625 3.902344-3.90625 10.234375-.003906 14.140625l29.882812 29.882812c1.953125 1.953126 4.511719 2.929688 7.070313 2.929688 2.5625 0 5.121094-.976562 7.074218-2.929688 3.902344-3.90625 3.90625-10.234374 0-14.140624zm0 0"/></svg>